Coordinates
version=1
nRows=11
nColumns=46
inDegrees=yes

Units are S.I. units (second, meters, Newtons, ...)
Angles are in degrees.

endheader
time	pelvis_tilt	pelvis_list	pelvis_rotation	pelvis_tx	pelvis_ty	pelvis_tz	bb_angle	bb_tx	bb_ty	bb_tz	hip_flexion_r	hip_adduction_r	hip_rotation_r	knee_angle_r	knee_angle_r_beta	ankle_angle_r	subtalar_angle_r	mtp_angle_r	crank_angle_r	hip_flexion_l	hip_adduction_l	hip_rotation_l	knee_angle_l	knee_angle_l_beta	ankle_angle_l	subtalar_angle_l	mtp_angle_l	crank_angle_l	lumbar_extension	lumbar_bending	lumbar_rotation	arm_flex_r	arm_add_r	arm_rot_r	elbow_flex_r	pro_sup_r	wrist_flex_r	wrist_dev_r	arm_flex_l	arm_add_l	arm_rot_l	elbow_flex_l	pro_sup_l	wrist_flex_l	wrist_dev_l
      5.00000000	    -30.47260626	      0.15946004	      4.69678834	      0.35682347	      1.16861280	     -0.26132764	      0.00000000	      0.50000000	      0.00000000	      0.25000000	     51.91589348	     -4.23514368	      2.57384446	     79.70724332	      1.39115383	    -14.61194321	    -11.53155228	      0.00000000	      0.00000000	     56.01181826	     -1.27787317	      1.61281291	     47.68932167	      0.83233568	     -9.04426516	    -14.35073658	      0.00000000	      0.00000000	    -56.99635250	     -6.22724406	      1.21550308	     27.47856647	    -32.20225340	      3.80077463	     93.47585234	     50.49931415	      0.00000000	      0.00000000	     42.90597502	    -27.63641274	     22.94074586	     98.06966348	     52.75737814	      0.00000000	      0.00000000
      5.00500000	    -30.10470119	     -0.49979598	      4.22279000	      0.35729482	      1.16786604	     -0.26158943	      0.00000000	      0.50000000	      0.00000000	      0.25000000	     52.92351871	     -3.41332897	      2.52675635	     82.09204605	      1.43277649	    -14.03348500	    -11.29568181	      0.00000000	      0.00000000	     54.19312919	     -1.99285636	      1.87716988	     45.23589808	      0.78951536	    -10.64637691	    -14.63559101	      0.00000000	      0.00000000	    -56.96736627	     -5.85503228	      1.79302062	     28.00124509	    -32.24670150	      4.45248114	     93.06611389	     50.50459558	      0.00000000	      0.00000000	     42.12957453	    -27.33147775	     22.02984746	     97.97023878	     52.63334297	      0.00000000	      0.00000000
      5.01000000	    -29.81218875	     -1.35459836	      3.75672563	      0.35764167	      1.16656944	     -0.26179239	      0.00000000	      0.50000000	      0.00000000	      0.25000000	     54.09534895	     -2.46054844	      2.24335754	     84.48659911	      1.47456933	    -13.72114402	    -11.38064786	      0.00000000	      0.00000000	     52.57385195	     -2.91493815	      2.23459556	     43.06711429	      0.75166294	    -11.57599917	    -14.15165920	      0.00000000	      0.00000000	    -56.79674452	     -5.34546713	      2.71176250	     28.17243148	    -32.20484199	      4.61138199	     92.99697173	     50.50328397	      0.00000000	      0.00000000	     41.64676737	    -27.39330208	     21.91391073	     97.90818608	     52.60801956	      0.00000000	      0.00000000
      5.01500000	    -29.50870022	     -2.17262770	      3.15015856	      0.35819990	      1.16546505	     -0.26181209	      0.00000000	      0.50000000	      0.00000000	      0.25000000	     55.25423343	     -1.43968744	      2.02930960	     86.71238475	      1.51341662	    -13.41695322	    -11.33474105	      0.00000000	      0.00000000	     50.81569083	     -3.97357376	      2.36435131	     40.73468809	      0.71095443	    -12.84607235	    -13.82963208	      0.00000000	      0.00000000	    -56.65893599	     -4.97663865	      3.65082333	     28.35368141	    -32.29586967	      4.82318841	     92.90309306	     50.50369470	      0.00000000	      0.00000000	     41.02483173	    -27.30601725	     21.72759855	     97.77675692	     52.56580767	      0.00000000	      0.00000000
      5.02000000	    -28.96498212	     -2.56640062	      2.27442865	      0.35919917	      1.16479863	     -0.26168213	      0.00000000	      0.50000000	      0.00000000	      0.25000000	     56.23179120	     -0.58156151	      2.20397247	     88.90353842	      1.55165946	    -13.28621955	    -11.01937576	      0.00000000	      0.00000000	     48.55787059	     -4.95280371	      1.70929277	     38.21061263	      0.66690100	    -14.69113030	    -14.34519018	      0.00000000	      0.00000000	    -56.79549092	     -5.11870471	      4.46703864	     28.54973220	    -32.85187201	      5.56152761	     92.64128227	     50.53457381	      0.00000000	      0.00000000	     40.29449461	    -26.54502262	     20.85142962	     97.41313438	     52.40693638	      0.00000000	      0.00000000
      5.02500000	    -28.74893422	     -3.34126184	      1.65201021	      0.35960938	      1.16326148	     -0.26182357	      0.00000000	      0.50000000	      0.00000000	      0.25000000	     57.60383385	      0.28707083	      1.85009317	     91.07118970	      1.58949211	    -13.14039945	    -10.97921274	      0.00000000	      0.00000000	     46.85710297	     -5.98615256	      1.73241259	     36.01941642	      0.62865741	    -15.71681991	    -13.85491819	      0.00000000	      0.00000000	    -56.54828288	     -4.71859589	      5.41687166	     28.72078195	    -33.00318710	      5.88374623	     92.59800078	     50.54952572	      0.00000000	      0.00000000	     39.69532578	    -26.41481050	     20.58539387	     97.20839200	     52.33776750	      0.00000000	      0.00000000
      5.03000000	    -28.28166803	     -3.73222274	      0.76022891	      0.36025128	      1.16222406	     -0.26167094	      0.00000000	      0.50000000	      0.00000000	      0.25000000	     58.76042400	      1.13495252	      1.95718692	     93.16034799	      1.62595480	    -13.23919748	    -10.90854000	      0.00000000	      0.00000000	     44.68533384	     -6.97163323	      0.98700347	     33.70684550	      0.58829543	    -17.04549553	    -13.75887453	      0.00000000	      0.00000000	    -56.57809594	     -4.79669792	      6.35367446	     28.92026774	    -33.69612861	      6.88558637	     92.46558750	     50.61992428	      0.00000000	      0.00000000	     39.08806616	    -25.64103551	     19.67660006	     96.74141123	     52.14847702	      0.00000000	      0.00000000
      5.03500000	    -28.13200566	     -4.45183962	      0.11299116	      0.36048694	      1.16059987	     -0.26184095	      0.00000000	      0.50000000	      0.00000000	      0.25000000	     60.24023114	      1.94192250	      1.60010124	     95.12607828	      1.66026327	    -13.19376264	    -10.78085833	      0.00000000	      0.00000000	     43.03048083	     -8.05937140	      0.59983942	     31.63883429	      0.55220183	    -17.98294821	    -12.88730855	      0.00000000	      0.00000000	    -56.25598900	     -4.38461964	      7.33423344	     29.08821976	    -33.88965386	      7.23168495	     92.43315761	     50.61177208	      0.00000000	      0.00000000	     38.42617251	    -25.48973171	     19.48024069	     96.49555377	     52.04913109	      0.00000000	      0.00000000
      5.04000000	    -27.77460076	     -4.79243780	     -0.87728499	      0.36100024	      1.15928236	     -0.26178532	      0.00000000	      0.50000000	      0.00000000	      0.25000000	     61.55167807	      2.72350818	      1.61714330	     97.04075589	      1.69368070	    -13.35711124	    -10.79496991	      0.00000000	      0.00000000	     40.96361643	     -9.09808567	     -0.66429070	     29.55564808	      0.51584337	    -18.87389696	    -12.19241654	      0.00000000	      0.00000000	    -56.16427635	     -4.56814022	      8.29981140	     29.19765517	    -34.52787343	      8.05524477	     92.37485299	     50.66688852	      0.00000000	      0.00000000	     37.89276794	    -24.93974111	     18.97942166	     96.08846811	     51.90844002	      0.00000000	      0.00000000
      5.04500000	    -27.62962539	     -5.20558113	     -1.74392163	      0.36118066	      1.15765628	     -0.26192859	      0.00000000	      0.50000000	      0.00000000	      0.25000000	     63.09684024	      3.45258881	      1.53692112	     98.83990590	      1.72508179	    -13.45302846	    -10.91063923	      0.00000000	      0.00000000	     39.17849985	    -10.06884358	     -1.70208253	     27.59877612	      0.48168951	    -19.58121502	    -11.13248031	      0.00000000	      0.00000000	    -55.86450807	     -4.53964951	      9.26892925	     29.32509910	    -35.11791565	      8.76770414	     92.35286311	     50.72038971	      0.00000000	      0.00000000	     37.38083433	    -24.59895989	     18.68772406	     95.67736063	     51.79540878	      0.00000000	      0.00000000
      5.05000000	    -27.43857229	     -5.45303267	     -2.56501037	      0.36142127	      1.15619212	     -0.26225979	      0.00000000	      0.50000000	      0.00000000	      0.25000000	     64.56428950	      3.99845344	      1.53358878	    100.56616702	      1.75521073	    -13.42663343	    -10.72367302	      0.00000000	      0.00000000	     37.28505484	    -10.84527366	     -2.95040518	     25.66109542	      0.44787060	    -20.16321685	     -9.86873756	      0.00000000	      0.00000000	    -55.62608068	     -4.54583787	     10.15607546	     29.46046459	    -35.87316152	      9.60520582	     92.38671533	     50.80318255	      0.00000000	      0.00000000	     37.00492075	    -24.11936660	     18.34168834	     95.16758282	     51.66720972	      0.00000000	      0.00000000
